<svg width="36" height="36" viewBox="0 0 36 36" fill="none" xmlns="http://www.w3.org/2000/svg">
<path d="M8.03571 36H0.5625V11.9433H8.03571V36ZM4.25893 8.72497C1.92857 8.72497 0 6.71354 0 4.29982C0 1.00107 3.53571 -1.09082 6.42857 0.598787C7.79464 1.3229 8.59821 2.77113 8.59821 4.29982C8.59821 6.71354 6.66964 8.72497 4.25893 8.72497ZM35.9196 36H28.5268V24.3337C28.5268 21.5177 28.4464 17.9776 24.5893 17.9776C20.7321 17.9776 20.1696 20.9545 20.1696 24.0923V36H12.6964V11.9433H19.8482V15.242H19.9286C20.9732 13.3915 23.3839 11.3801 27 11.3801C34.5536 11.3801 36 16.3684 36 22.805V36H35.9196Z" fill="white"/>
</svg>
