<svg width="41" height="33" viewBox="0 0 41 33" fill="none" xmlns="http://www.w3.org/2000/svg">
<path d="M36.8278 8.19036C36.8278 8.58795 36.8278 8.90602 36.8278 9.30361C36.8278 20.3566 28.4031 33 12.9178 33C8.10372 33 3.6908 31.6482 0 29.2627C0.641879 29.3422 1.28376 29.4217 2.00587 29.4217C5.93738 29.4217 9.54795 28.0699 12.4364 25.8434C8.7456 25.7639 5.61644 23.3783 4.57339 20.0386C5.13503 20.1181 5.61644 20.1976 6.17808 20.1976C6.9002 20.1976 7.70254 20.0386 8.34442 19.8795C4.49315 19.0843 1.6047 15.7446 1.6047 11.6892V11.6096C2.72798 12.2458 4.09198 12.5639 5.45597 12.6434C3.12916 11.1325 1.68493 8.58795 1.68493 5.7253C1.68493 4.13494 2.08611 2.70361 2.80822 1.51084C6.98043 6.52048 13.2387 9.86024 20.2192 10.2578C20.0587 9.62169 19.9785 8.98554 19.9785 8.3494C19.9785 3.73735 23.7495 0 28.4031 0C30.8102 0 32.9765 0.954217 34.5812 2.6241C36.4266 2.22651 38.272 1.51084 39.8767 0.556626C39.2348 2.54458 37.9511 4.13494 36.1859 5.16867C37.8708 5.00964 39.5558 4.53253 41 3.89639C39.8767 5.56627 38.4325 6.99759 36.8278 8.19036Z" fill="white"/>
</svg>
