<svg width="43" height="31" viewBox="0 0 43 31" fill="none" xmlns="http://www.w3.org/2000/svg">
<path d="M42.0567 4.92448C41.585 2.98698 40.0914 1.45312 38.2834 0.96875C34.9031 0 21.5393 0 21.5393 0C21.5393 0 8.09689 0 4.71664 0.96875C2.90859 1.45312 1.41499 2.98698 0.943327 4.92448C0 8.3151 0 15.5807 0 15.5807C0 15.5807 0 22.7656 0.943327 26.237C1.41499 28.1745 2.90859 29.6276 4.71664 30.112C8.09689 31 21.5393 31 21.5393 31C21.5393 31 34.9031 31 38.2834 30.112C40.0914 29.6276 41.585 28.1745 42.0567 26.237C43 22.7656 43 15.5807 43 15.5807C43 15.5807 43 8.3151 42.0567 4.92448ZM17.1371 22.1198V9.04167L28.2998 15.5807L17.1371 22.1198Z" fill="white"/>
</svg>
