<svg xmlns="http://www.w3.org/2000/svg" xmlns:xlink="http://www.w3.org/1999/xlink" width="323" height="72" viewBox="0 0 323 72" fill="none"><defs><path id="path_0"
        transform="translate(0 0) rotate(0 161.22750854492188 35.7003059387207)"
        d="M0,71.4L322.46,71.4L322.46,0L0,0L0,71.4Z" /></defs><g opacity="1" transform="translate(0 0.0000019073486328125)  rotate(0 161.22750854492188 35.7003059387207)"><mask id="mask-0" fill="white"><use xlink:href="#path_0"></use></mask><g mask="url(#mask-0)"></g><g mask="url(#mask-0)"><path id="Trazado 1" fill-rule="evenodd" style="fill:#005641" transform="translate(0 -0.0008026671130210161)  rotate(0 45.834259033203125 29.05722236633301)" opacity="1" d="M30.4 55L35.98 46.42C36.52 45.58 37.46 45.07 38.46 45.07L76.39 45.07C77.15 45.07 77.9 45.01 78.62 44.9C86 43.83 91.67 37.47 91.67 29.79L91.67 16.02C91.67 7.17 84.5 0 75.65 0L68.66 0C65.61 0 62.75 1.55 61.08 4.11L56.58 11.05C55.77 12.29 54.4 13.04 52.92 13.04L16.72 13.05C15.67 13.05 14.65 13.15 13.65 13.33C7.14 14.54 1.96 19.52 0.45 25.92C0.16 27.16 0 28.44 0 29.76L0 32.49L0 33.8L0 41.4C0 50.63 7.49 58.11 16.72 58.11L24.67 58.11C26.98 58.11 29.14 56.94 30.4 55Z M78.6249 25.9257Z M32.1949 44.8957L33.1649 44.8457C36.4949 44.4957 37.6149 42.3557 37.6149 42.3557C37.6149 42.3557 39.1249 40.3257 42.0249 35.9157C44.5649 32.0557 49.3049 32.4857 49.3049 32.4857L75.3049 32.4857C77.1349 32.4857 78.6249 31.0057 78.6249 29.1657L78.6249 25.9257L78.6249 16.8857C78.6249 14.7657 76.9049 13.0457 74.7949 13.0457L58.0949 13.0457C57.7449 13.1257 54.9849 13.8757 53.7149 16.0957C52.3549 18.4657 50.1549 25.9257 42.8749 25.9257L25.5949 25.9257L17.2149 25.9257C15.2549 25.9257 13.6549 27.5157 13.6549 29.4857L13.6549 31.7257L13.6549 41.0857L13.6549 41.8457C13.6549 43.2657 14.5749 44.4757 15.8549 44.8957L32.1949 44.8957Z " /></g><g mask="url(#mask-0)"><path id="Trazado 2" fill-rule="evenodd" style="fill:#005641" transform="translate(38.696205139160156 58.117655754089355)  rotate(0 26.570323944091797 6.643083095550536)" opacity="1" d="M11.09 13.29C5.38 13.29 0.64 8.87 0.23 3.17L0 0L53.14 0L53.14 13.29L11.09 13.29Z" /></g><g mask="url(#mask-0)"><path id="Trazado 3" fill-rule="evenodd" style="fill:#005641" transform="translate(117.45510652433477 24.964362144470215)  rotate(0 10.406596289224213 11.92548608779907)" opacity="1" d="M12.12 4.12C6.6 4.12 4.22 8.23 4.25 12.06C4.28 15.85 6.47 19.8 12.12 19.8C14.12 19.8 16.37 18.98 17.87 17.48L20.81 20.45C18.46 22.77 15.42 23.85 12.12 23.85C3.63 23.85 0.03 18 0 12.06C-0.03 6.08 3.86 0 12.12 0C15.23 0 18.17 1.17 20.52 3.49L17.64 6.27C16.14 4.8 14.12 4.12 12.12 4.12Z" /></g><g mask="url(#mask-0)"><path id="Trazado 4" fill-rule="evenodd" style="fill:#005641" transform="translate(139.76325225830078 25.425270080566406)  rotate(0 12.612833023071293 11.434520721435547)" opacity="1" d="M18.59 18.56Z M20.52 22.87L25.23 22.87L14.97 0L10.26 0L0 22.87L4.67 22.87L6.63 18.56L18.59 18.56L20.52 22.87Z M12.6145 4.80146Z M16.8645 14.5415L12.6145 4.80146L8.36447 14.5415L16.8645 14.5415Z " /></g><g mask="url(#mask-0)"><path id="Trazado 5" fill-rule="evenodd" style="fill:#005641" transform="translate(169.0328826904297 25.38920021057129)  rotate(0 9.586885222775173 11.452554702758787)" opacity="1" d="M10.78 0C7.19 0 3.6 0.03 0 0.03L0 22.91L4.31 22.91L4.31 16.17L10.78 16.17C21.99 16.17 21.96 0 10.78 0Z M4.3125 12.2161Z M10.7825 4.11611L4.3125 4.11611L4.3125 12.2161L10.7825 12.2161C16.3025 12.2161 16.2725 4.11611 10.7825 4.11611Z " /></g><g mask="url(#mask-0)"><path id="Trazado 6" fill-rule="evenodd" style="fill:#005641" transform="translate(193.59326171875 18.6920108795166)  rotate(0 3.67724609375 14.801148414611816)" opacity="1" d="M0 6.72925Z M0 29.5993L4.28 29.5993L4.28 6.72925L0 6.72925L0 29.5993Z M7.35246 0Z M0.23246 4.44L0.23246 4.64L3.75246 4.64L7.35246 0.16L7.35246 0L2.64246 0L0.23246 4.44Z " /></g><g mask="url(#mask-0)"><path id="Trazado 7" fill-rule="evenodd" style="fill:#005641" transform="translate(204.0771026611328 25.424072265625)  rotate(0 9.410530090332028 11.434518814086916)" opacity="1" d="M18.82 3.92L11.57 3.92L11.57 22.87L7.25 22.87L7.25 3.92L0 3.92L0 0L18.82 0L18.82 3.92Z" /></g><g mask="url(#mask-0)"><path id="Trazado 8" fill-rule="evenodd" style="fill:#005641" transform="translate(228.6422882080078 25.45332431793213)  rotate(0 10.02975845336914 11.664971828460693)" opacity="1" d="M10.19 19.41C13.76 19.41 15.78 17.02 15.78 13.1L15.78 0L20.06 0L20.06 13.1C20.06 19.87 15.91 23.33 10.16 23.33C4.67 23.33 0 20 0 13.1L0 0L4.28 0L4.28 13.1C4.28 17.22 6.63 19.41 10.19 19.41Z" /></g><g mask="url(#mask-0)"><path id="Trazado 9" fill-rule="evenodd" style="fill:#005641" transform="translate(255.3592872619629 25.422868728637695)  rotate(0 8.03782844543457 11.436522483825682)" opacity="1" d="M0 22.87L0 0L4.31 0L4.31 18.89L16.08 18.89L16.08 22.87L0 22.87Z" /></g><g mask="url(#mask-0)"><path id="Trazado 10" fill-rule="evenodd" style="fill:#005641" transform="translate(275.2179870605469 24.964362144470215)  rotate(0 11.745565037108769 11.92548608779907)" opacity="1" d="M11.76 0C3.86 0 0 6.04 0 12.06C0 18.07 3.72 23.85 11.76 23.85C19.8 23.85 23.43 17.94 23.49 12.02C23.56 6.04 19.64 0 11.76 0Z M4.24511 12.1237Z M19.2451 12.0937C19.3051 8.23373 17.1551 3.92373 11.7651 3.92373C6.37511 3.92373 4.14511 8.26373 4.24511 12.1237C4.34511 15.8837 6.37511 19.9037 11.7651 19.9037C17.1551 19.9037 19.1751 15.8437 19.2451 12.0937Z " /></g><g mask="url(#mask-0)"><path id="Trazado 11" fill-rule="evenodd" style="fill:#005641" transform="translate(303.9265441894531 25.12868595123291)  rotate(0 9.26424789428711 11.582810878753662)" opacity="1" d="M9.28 14.21C7.39 14.21 4.32 14.7 4.32 17.19L4.32 19.15L18.53 19.15L18.53 23.17L0 23.17L0 17.15C0 11.89 4.77 10.32 9.28 10.32C11.01 10.32 14.18 10.03 14.18 7.38C14.18 4.9 11.93 3.72 8.99 3.72C6.73 3.72 4.41 4.87 4.38 6.93L0.1 6.93C0.13 2.09 4.71 0 8.92 0C13.5 0 18.46 1.86 18.46 7.29C18.46 13.1 14.08 14.21 9.28 14.21Z" /></g></g></svg>