<svg width="50" height="50" viewBox="0 0 50 50" fill="none" xmlns="http://www.w3.org/2000/svg">
<circle cx="25" cy="25" r="25" fill="#009D52"/>
<path d="M27.9377 12.0889C27.6291 11.746 27.2528 11.4719 26.833 11.2844C26.4132 11.0969 25.9591 11 25.5 11C25.0409 11 24.5868 11.0969 24.167 11.2844C23.7472 11.4719 23.3709 11.746 23.0623 12.0889L16.3666 20.2018C16.174 20.4352 16.0513 20.7191 16.0129 21.0204C15.9745 21.3216 16.0221 21.6277 16.1501 21.9026C16.278 22.1775 16.481 22.41 16.7353 22.5726C16.9895 22.7353 17.2844 22.8214 17.5855 22.8209H20.7513V36.403C20.7513 36.8265 20.9181 37.2327 21.2149 37.5322C21.5118 37.8317 21.9144 38 22.3342 38H28.6658C29.0856 38 29.4882 37.8317 29.7851 37.5322C30.0819 37.2327 30.2487 36.8265 30.2487 36.403V22.8209H33.4145C33.7156 22.8214 34.0105 22.7353 34.2647 22.5726C34.519 22.41 34.722 22.1775 34.8499 21.9026C34.9779 21.6277 35.0255 21.3216 34.9871 21.0204C34.9487 20.7191 34.826 20.4352 34.6334 20.2018L27.9377 12.0889Z" fill="white"/>
</svg>
