<svg width="50" height="50" viewBox="0 0 50 50" fill="none" xmlns="http://www.w3.org/2000/svg">
<circle r="25" transform="matrix(1 0 0 -1 25 25)" fill="#FF2600"/>
<path d="M27.9377 37.9111C27.6291 38.254 27.2528 38.5281 26.833 38.7156C26.4132 38.9031 25.9591 39 25.5 39C25.0409 39 24.5868 38.9031 24.167 38.7156C23.7472 38.5281 23.3709 38.254 23.0623 37.9111L16.3666 29.7982C16.174 29.5648 16.0513 29.2809 16.0129 28.9796C15.9745 28.6784 16.0221 28.3723 16.1501 28.0974C16.278 27.8225 16.481 27.59 16.7353 27.4274C16.9895 27.2647 17.2844 27.1786 17.5855 27.1791H20.7513V13.597C20.7513 13.1735 20.9181 12.7673 21.2149 12.4678C21.5118 12.1683 21.9144 12 22.3342 12H28.6658C29.0856 12 29.4882 12.1683 29.7851 12.4678C30.0819 12.7673 30.2487 13.1735 30.2487 13.597V27.1791H33.4145C33.7156 27.1786 34.0105 27.2647 34.2647 27.4274C34.519 27.59 34.722 27.8225 34.8499 28.0974C34.9779 28.3723 35.0255 28.6784 34.9871 28.9796C34.9487 29.2809 34.826 29.5648 34.6334 29.7982L27.9377 37.9111Z" fill="white"/>
</svg>
